<svg width="3119" height="2949" viewBox="0 0 3119 2949" fill="none" xmlns="http://www.w3.org/2000/svg">
<g clip-path="url(#clip0_80_230)">
<path fill-rule="evenodd" clip-rule="evenodd" d="M2563.75 2141.58L2600.26 2078.37H2946.02L3118.92 2377.78L2946.02 2677.25H2600.26L2427.38 2377.77L2458.26 2324.35L2171.14 2158.57L2138.27 2215.49H1792.5L1619.62 1916.09L1792.5 1616.61H2138.27L2311.15 1916.09L2276.63 1975.88L2563.75 2141.58ZM1800.15 1916.09L1882.76 1772.99H2048L2130.61 1916.09L2048 2059.19H1882.76L1800.15 1916.09Z" fill="url(#paint0_linear_80_230)"/>
<path fill-rule="evenodd" clip-rule="evenodd" d="M842.28 1975.88L807.76 1916.09L980.64 1616.61H1326.41L1499.29 1916.09L1326.41 2215.5H980.64L947.77 2158.58L660.66 2324.36L691.54 2377.78L518.65 2677.25H172.92L0 2377.78L172.92 2078.37H518.65L555.17 2141.58L842.28 1975.88ZM1236.15 2059.19H1070.92L988.3 1916.09L1070.92 1772.99H1236.15L1318.76 1916.09L1236.15 2059.19Z" fill="url(#paint1_linear_80_230)"/>
<path fill-rule="evenodd" clip-rule="evenodd" d="M1453.92 600.7L1380.92 598.63L1216.51 294.48L1397.65 0H1743.32L1907.76 313.8L1726.55 608.32L1664.92 606.56L1655.65 937.97L1721.35 939.82L1885.8 1243.97L1704.6 1538.45L1358.92 1528.81L1194.49 1224.65L1375.7 930.14L1444.7 932.06L1453.92 600.7ZM1618.74 1379.64L1453.57 1375.03L1374.98 1229.68L1461.57 1088.95L1626.74 1093.56L1705.33 1238.91L1618.74 1379.64Z" fill="url(#paint2_linear_80_230)"/>
<path d="M2287.65 2474C2297.72 2468.17 2306.55 2460.41 2313.62 2451.16C2320.69 2441.92 2325.88 2431.37 2328.88 2420.13C2331.87 2408.88 2332.63 2397.15 2331.09 2385.61C2329.56 2374.07 2325.76 2362.95 2319.93 2352.88C2314.1 2342.81 2306.34 2333.98 2297.09 2326.91C2287.85 2319.84 2277.3 2314.65 2266.06 2311.66C2254.81 2308.66 2243.08 2307.9 2231.54 2309.44C2220.01 2310.97 2208.88 2314.77 2198.81 2320.6L1551.12 2694.6L903.44 2320.6C883.112 2309.06 859.046 2306.01 836.484 2312.13C813.921 2318.24 794.688 2333.03 782.971 2353.25C771.254 2373.48 768.003 2397.52 773.925 2420.14C779.847 2442.75 794.463 2462.11 814.59 2474L1505.84 2873.09C1519.39 2881.16 1534.86 2885.45 1550.63 2885.54C1566.4 2885.62 1581.91 2881.49 1595.55 2873.57L2287.65 2474ZM1854.72 672.35C1834.39 660.894 1810.36 657.933 1787.86 664.112C1765.36 670.29 1746.21 685.107 1734.58 705.337C1722.96 725.568 1719.79 749.572 1725.78 772.125C1731.77 794.677 1746.42 813.951 1766.55 825.75L2414.24 1199.68V1947.8C2414.06 1959.53 2416.22 1971.19 2420.59 1982.08C2424.96 1992.97 2431.45 2002.88 2439.69 2011.24C2447.92 2019.6 2457.74 2026.24 2468.56 2030.78C2479.39 2035.31 2491.01 2037.64 2502.74 2037.64C2514.48 2037.64 2526.09 2035.31 2536.92 2030.78C2547.74 2026.24 2557.56 2019.6 2565.79 2011.24C2574.03 2002.88 2580.52 1992.97 2584.89 1982.08C2589.26 1971.19 2591.42 1959.53 2591.24 1947.8V1148.63C2591.24 1133.07 2587.13 1117.78 2579.34 1104.32C2571.55 1090.85 2560.34 1079.67 2546.85 1071.92L1854.72 672.35ZM511.03 1947.8C511.03 1971.27 520.354 1993.78 536.951 2010.38C553.548 2026.98 576.059 2036.3 599.53 2036.3C623.002 2036.3 645.512 2026.98 662.109 2010.38C678.706 1993.78 688.03 1971.27 688.03 1947.8V1199.68L1335.69 825.75C1355.82 813.951 1370.48 794.677 1376.46 772.125C1382.45 749.572 1379.28 725.568 1367.66 705.337C1356.03 685.107 1336.88 670.29 1314.38 664.112C1291.88 657.933 1267.85 660.894 1247.52 672.35L557.78 1070.56C543.641 1078.11 531.819 1089.37 523.578 1103.12C515.337 1116.87 510.986 1132.6 510.99 1148.63L511.03 1947.8Z" fill="url(#paint3_linear_80_230)"/>
</g>
<defs>
<linearGradient id="paint0_linear_80_230" x1="891.957" y1="3614.02" x2="3264.99" y2="1253.41" gradientUnits="userSpaceOnUse">
<stop stop-color="#9764A9"/>
<stop offset="1" stop-color="#3DB4E7"/>
</linearGradient>
<linearGradient id="paint1_linear_80_230" x1="1.74885e+08" y1="-2.16145e+09" x2="1.71334e+08" y2="-2.16499e+09" gradientUnits="userSpaceOnUse">
<stop stop-color="#9764A9"/>
<stop offset="1" stop-color="#3DB4E7"/>
</linearGradient>
<linearGradient id="paint2_linear_80_230" x1="1.94516e+06" y1="-235593" x2="85791.5" y2="-3.67443e+06" gradientUnits="userSpaceOnUse">
<stop stop-color="#9764A9"/>
<stop offset="1" stop-color="#3DB4E7"/>
</linearGradient>
<linearGradient id="paint3_linear_80_230" x1="2.05803e+06" y1="4.20023e+06" x2="6.38552e+06" y2="4.20023e+06" gradientUnits="userSpaceOnUse">
<stop stop-color="#9764A9"/>
<stop offset="1" stop-color="#3DB4E7"/>
</linearGradient>
<clipPath id="clip0_80_230">
<rect width="3119" height="2949" fill="white"/>
</clipPath>
</defs>
</svg>
