<svg width="808" height="394" viewBox="0 0 808 394" fill="none" xmlns="http://www.w3.org/2000/svg">
<line x1="249.82" y1="160.115" x2="309.761" y2="192.226" stroke="black"/>
<line x1="551.209" y1="205.062" x2="597.235" y2="182.584" stroke="black"/>
<g opacity="0.5">
<path d="M224.275 230.799H644.8L805 392.201H4L224.275 230.799Z" stroke="white" stroke-width="2" stroke-miterlimit="10" style="mix-blend-mode:color-dodge"/>
<path d="M44.0498 362.855H775.873" stroke="white" stroke-width="2" stroke-miterlimit="10" style="mix-blend-mode:color-dodge"/>
<path d="M64.074 348.182H761.31" stroke="white" stroke-width="2" stroke-miterlimit="10" style="mix-blend-mode:color-dodge"/>
<path d="M84.0997 333.51H746.746" stroke="white" stroke-width="2" stroke-miterlimit="10" style="mix-blend-mode:color-dodge"/>
<path d="M104.125 318.836H732.183" stroke="white" stroke-width="2" stroke-miterlimit="10" style="mix-blend-mode:color-dodge"/>
<path d="M124.15 304.164H717.619" stroke="white" stroke-width="2" stroke-miterlimit="10" style="mix-blend-mode:color-dodge"/>
<path d="M144.175 289.49H703.054" stroke="white" stroke-width="2" stroke-miterlimit="10" style="mix-blend-mode:color-dodge"/>
<path d="M164.199 274.818H688.49" stroke="white" stroke-width="2" stroke-miterlimit="10" style="mix-blend-mode:color-dodge"/>
<path d="M184.225 260.145H673.927" stroke="white" stroke-width="2" stroke-miterlimit="10" style="mix-blend-mode:color-dodge"/>
<path d="M204.249 245.473H659.364" stroke="white" stroke-width="2" stroke-miterlimit="10" style="mix-blend-mode:color-dodge"/>
<path d="M606.57 230.799L732.182 392.201" stroke="white" stroke-width="2" stroke-miterlimit="10" style="mix-blend-mode:color-dodge"/>
<path d="M568.341 230.799L659.363 392.201" stroke="white" stroke-width="2" stroke-miterlimit="10" style="mix-blend-mode:color-dodge"/>
<path d="M530.112 230.799L586.547 392.201" stroke="white" stroke-width="2" stroke-miterlimit="10" style="mix-blend-mode:color-dodge"/>
<path d="M491.881 230.799L513.727 392.201" stroke="white" stroke-width="2" stroke-miterlimit="10" style="mix-blend-mode:color-dodge"/>
<path d="M453.652 230.799L440.908 392.201" stroke="white" stroke-width="2" stroke-miterlimit="10" style="mix-blend-mode:color-dodge"/>
<path d="M415.422 230.799L368.091 392.201" stroke="white" stroke-width="2" stroke-miterlimit="10" style="mix-blend-mode:color-dodge"/>
<path d="M377.193 230.799L295.273 392.201" stroke="white" stroke-width="2" stroke-miterlimit="10" style="mix-blend-mode:color-dodge"/>
<path d="M338.965 230.799L222.456 392.201" stroke="white" stroke-width="2" stroke-miterlimit="10" style="mix-blend-mode:color-dodge"/>
<path d="M300.734 230.799L149.636 392.201" stroke="white" stroke-width="2" stroke-miterlimit="10" style="mix-blend-mode:color-dodge"/>
<path d="M262.505 230.799L76.817 392.201" stroke="white" stroke-width="2" stroke-miterlimit="10" style="mix-blend-mode:color-dodge"/>
</g>
<path d="M194 173.057V192.339L137.063 159.484V140.184L194 173.057Z" fill="#081353" stroke="black"/>
<path d="M251.936 140.184V159.484L194.999 192.339V173.057L251.936 140.184Z" fill="#6E7FBB" stroke="black"/>
<path d="M194.5 106.463L251.436 139.318L194.5 172.191L137.563 139.318L194.5 106.463Z" fill="#80DEEA" stroke="black"/>
<g style="mix-blend-mode:multiply">
<path d="M194 152.622V171.903L137.063 139.029V119.748L194 152.622Z" fill="white" style="mix-blend-mode:multiply"/>
<path d="M194 152.622V171.903L137.063 139.029V119.748L194 152.622Z" stroke="black"/>
</g>
<g style="mix-blend-mode:multiply">
<path d="M251.936 119.748V139.029L194.999 171.903V152.622L251.936 119.748Z" fill="url(#paint0_linear_13586_1746)" style="mix-blend-mode:multiply"/>
<path d="M251.936 119.748V139.029L194.999 171.903V152.622L251.936 119.748Z" stroke="black"/>
</g>
<path d="M194.5 86.0083L251.436 118.882L194.5 151.756L137.563 118.882L194.5 86.0083Z" fill="#081353" stroke="black"/>
<path d="M194 132.186V151.467L137.063 118.593V99.3122L194 132.186Z" fill="#081353" stroke="black"/>
<path d="M251.936 99.3122V118.593L194.999 151.467V132.186L251.936 99.3122Z" fill="#6E7FBB" stroke="black"/>
<path d="M194.5 65.5724L251.436 98.446L194.5 131.32L137.563 98.446L194.5 65.5724Z" fill="#00C6DA" stroke="black"/>
<g opacity="0.8">
<g opacity="0.8">
<mask id="path-32-inside-1_13586_1746" fill="white">
<path d="M194.499 151.808H194.363V172.769H194.499V151.808Z"/>
</mask>
<path d="M194.499 151.808H194.363V172.769H194.499V151.808Z" fill="#081353"/>
<path d="M194.363 151.808V150.808H193.363V151.808H194.363ZM194.499 151.808H195.499V150.808H194.499V151.808ZM194.499 172.769V173.769H195.499V172.769H194.499ZM194.363 172.769H193.363V173.769H194.363V172.769ZM194.363 152.808H194.499V150.808H194.363V152.808ZM193.499 151.808V172.769H195.499V151.808H193.499ZM194.499 171.769H194.363V173.769H194.499V171.769ZM195.363 172.769V151.808H193.363V172.769H195.363Z" fill="black" mask="url(#path-32-inside-1_13586_1746)"/>
</g>
</g>
<path d="M193.606 81.0739L226.314 99.942L193.606 118.829L160.897 99.942L193.606 81.0739Z" fill="#6E7FBB" stroke="black"/>
<path d="M161.403 99.942L193.63 81.3621V118.541L161.403 99.942Z" fill="#081353" stroke="black"/>
<path d="M432.294 289.023V330.605L312.156 261.25V219.687L432.294 289.023Z" fill="#081353" stroke="black"/>
<path d="M553.432 219.687V261.25L433.294 330.605V289.023L553.432 219.687Z" fill="#6E7FBB" stroke="black"/>
<path d="M432.794 149.466L552.932 218.821L432.794 288.176L312.656 218.821L432.794 149.466Z" fill="#80DEEA" stroke="black"/>
<g style="mix-blend-mode:multiply">
<path d="M432.294 246.286V287.868L312.156 218.513V176.931L432.294 246.286Z" fill="#6E7FBB" style="mix-blend-mode:multiply"/>
<path d="M432.294 246.286V287.868L312.156 218.513V176.931L432.294 246.286Z" stroke="black"/>
</g>
<g style="mix-blend-mode:multiply">
<path d="M553.432 176.931V218.513L433.294 287.868V246.286L553.432 176.931Z" fill="url(#paint1_linear_13586_1746)" style="mix-blend-mode:multiply"/>
<path d="M553.432 176.931V218.513L433.294 287.868V246.286L553.432 176.931Z" stroke="black"/>
</g>
<path d="M432.794 106.71L552.932 176.065L432.794 245.42L312.656 176.065L432.794 106.71Z" fill="#081353" stroke="black"/>
<mask id="path-42-inside-2_13586_1746" fill="white">
<path d="M433.571 243.9H432.794V288.967H433.571V243.9Z"/>
</mask>
<path d="M433.571 243.9H432.794V288.967H433.571V243.9Z" fill="#6E7FBB"/>
<path d="M432.794 243.9V242.9H431.794V243.9H432.794ZM433.571 243.9H434.571V242.9H433.571V243.9ZM433.571 288.967V289.967H434.571V288.967H433.571ZM432.794 288.967H431.794V289.967H432.794V288.967ZM432.794 244.9H433.571V242.9H432.794V244.9ZM432.571 243.9V288.967H434.571V243.9H432.571ZM433.571 287.967H432.794V289.967H433.571V287.967ZM433.794 288.967V243.9H431.794V288.967H433.794Z" fill="black" mask="url(#path-42-inside-2_13586_1746)"/>
<path d="M432.294 203.55V245.132L312.156 175.777V134.195L432.294 203.55Z" fill="#081353" stroke="black"/>
<path d="M553.432 134.195V175.777L433.294 245.132V203.55L553.432 134.195Z" fill="#6E7FBB" stroke="black"/>
<path d="M432.794 63.9737L552.932 133.329L432.794 202.684L312.656 133.329L432.794 63.9737Z" fill="#00C6DA" stroke="black"/>
<path d="M423 158C442.33 158 458 152.851 458 146.5C458 140.149 442.33 135 423 135C403.67 135 388 140.149 388 146.5C388 152.851 403.67 158 423 158Z" fill="#4C73AE" fill-opacity="0.49"/>
<path d="M418.725 126.447L420.342 125.514L459.258 103.058L418.725 126.447ZM418.725 126.447H419.765M418.725 126.447H419.765M419.765 126.447L408.247 146.38M419.765 126.447L408.247 146.38M408.247 146.38L394.225 138.277L394.222 138.275C393.034 137.599 392.202 136.077 392.202 133.737V64.3289C392.202 61.9806 393.036 59.3371 394.403 56.9715C395.77 54.6058 397.641 52.5663 399.665 51.3969L459.777 16.6833L459.777 16.6832C461.803 15.5124 463.526 15.4641 464.715 16.1577L464.717 16.1588L478.739 24.2616L466.788 44.9444L466.721 45.0605V45.1946V90.1262C466.721 92.4745 465.887 95.118 464.52 97.4836C463.153 99.8492 461.281 101.889 459.258 103.058L408.247 146.38Z" fill="white" stroke="black"/>
<path d="M408.182 65.4912L407.933 146.19L394.208 138.258C394.208 138.258 394.207 138.258 394.207 138.258C393.015 137.562 392.202 136.057 392.183 133.715V64.3289C392.183 62.117 392.938 59.6597 394.164 57.4004L408.182 65.4912Z" fill="#081353" stroke="black"/>
<path d="M413.62 146.105L413.62 146.105C411.595 147.276 409.866 147.321 408.675 146.634C407.484 145.948 406.657 144.43 406.657 142.09V72.6625C406.657 70.3242 407.491 67.6856 408.858 65.3196C410.225 62.9541 412.097 60.9095 414.121 59.7301C414.121 59.73 414.122 59.7298 414.122 59.7297L474.233 25.0169L474.233 25.0168C476.258 23.8468 477.987 23.8014 479.178 24.4878C480.369 25.1741 481.196 26.6924 481.196 29.0324V98.4598C481.196 100.798 480.362 103.437 478.995 105.803C477.628 108.168 475.756 110.213 473.732 111.392C473.732 111.392 473.731 111.392 473.731 111.393L413.62 146.105Z" fill="white" stroke="black"/>
<path d="M454.384 69.535C454.384 72.923 453.19 76.7078 451.238 80.0855C449.287 83.4629 446.604 86.3865 443.677 88.0808C440.737 89.7767 438.197 89.8733 436.425 88.8483C434.652 87.8233 433.469 85.5731 433.469 82.1811C433.469 78.7931 434.663 75.0083 436.615 71.6306C438.566 68.2531 441.249 65.3294 444.177 63.6352C447.117 61.9394 449.656 61.8428 451.428 62.8677C453.201 63.8928 454.384 66.143 454.384 69.535Z" fill="#00C6DA" stroke="black"/>
<path d="M446.841 81.0363L451.388 103.044L436.542 111.606L440.866 84.4768L446.841 81.0363Z" fill="#00C6DA" stroke="black"/>
<path d="M451.859 70.9918C451.859 73.574 450.951 76.4653 449.458 79.0512C447.965 81.6368 445.914 83.8709 443.676 85.167C441.436 86.4547 439.528 86.5127 438.212 85.7522C436.896 84.9917 435.994 83.3097 435.994 80.7241C435.994 78.1419 436.902 75.2506 438.395 72.6648C439.888 70.0791 441.939 67.8451 444.176 66.549C446.417 65.2612 448.325 65.2032 449.641 65.9637C450.957 66.7242 451.859 68.4062 451.859 70.9918Z" fill="#081353" stroke="black"/>
<path d="M445.388 81.2749L447.361 101.645L440.525 105.572L442.498 82.9496L445.388 81.2749Z" fill="#081353" stroke="black"/>
<path d="M449.955 72.0993C449.955 74.0696 449.261 76.2908 448.113 78.2818C446.964 80.2729 445.39 81.9867 443.677 82.9716C441.961 83.9586 440.529 83.9876 439.558 83.4262C438.586 82.8648 437.898 81.61 437.898 79.6364C437.898 77.6661 438.592 75.4449 439.74 73.4538C440.889 71.4628 442.463 69.749 444.176 68.7641C445.892 67.777 447.324 67.7481 448.295 68.3095C449.267 68.8709 449.955 70.1256 449.955 72.0993Z" fill="#06E7FE" stroke="black"/>
<path d="M412.972 53.4503L409.377 51.3747V36.7639C409.377 32.5991 410.853 27.9304 413.257 23.7655C415.661 19.6006 418.965 15.9878 422.572 13.9055L422.572 13.9055L442.758 2.25006L442.759 2.24957C446.183 0.263437 449.188 0.070069 451.42 1.15915L451.823 1.35562L456.191 3.89206V3.91626L456.396 4.06607C458.325 5.47669 459.572 8.13435 459.572 11.9573V26.5679L451.348 31.3107L447.71 29.21V18.7757C447.71 18.6912 447.71 18.6057 447.71 18.5196C447.712 17.7258 447.713 16.8737 447.594 16.1367C447.464 15.3272 447.166 14.506 446.411 14.0693L446.411 14.0693L446.406 14.066C445.652 13.6433 444.799 13.7962 444.038 14.0857C443.342 14.3503 442.608 14.7751 441.926 15.1703C441.855 15.2115 441.784 15.2524 441.714 15.2927L430.834 21.5672L430.834 21.5676C428.156 23.1178 425.748 25.7696 424.011 28.775C422.275 31.7803 421.181 35.1879 421.181 38.2791V48.7133L412.972 53.4503Z" fill="#6E7FBB" stroke="black"/>
<path d="M655.104 215.64V234.921L598.168 202.047V182.766L655.104 215.64Z" fill="#081353" stroke="black"/>
<path d="M713.04 182.766V202.047L656.104 234.921V215.64L713.04 182.766Z" fill="#6E7FBB" stroke="black"/>
<path d="M655.604 149.026L712.54 181.9L655.604 214.773L598.668 181.9L655.604 149.026Z" fill="#80DEEA" stroke="black"/>
<g style="mix-blend-mode:multiply">
<path d="M655.104 195.184V214.466L598.168 181.611V162.33L655.104 195.184Z" fill="#ABBFDD" style="mix-blend-mode:multiply"/>
<path d="M655.104 195.184V214.466L598.168 181.611V162.33L655.104 195.184Z" stroke="black"/>
</g>
<g style="mix-blend-mode:multiply">
<path d="M713.04 162.33V181.611L656.104 214.466V195.184L713.04 162.33Z" fill="url(#paint2_linear_13586_1746)" style="mix-blend-mode:multiply"/>
<path d="M713.04 162.33V181.611L656.104 214.466V195.184L713.04 162.33Z" stroke="black"/>
</g>
<path d="M655.604 128.59L712.54 161.464L655.604 194.318L598.668 161.464L655.604 128.59Z" fill="#081353" stroke="black"/>
<path d="M655.104 174.748V194.03L598.168 161.156V141.875L655.104 174.748Z" fill="#081353" stroke="black"/>
<path d="M713.04 141.875V161.156L656.104 194.03V174.748L713.04 141.875Z" fill="#6E7FBB" stroke="black"/>
<path d="M655.604 108.155L712.54 141.009L655.604 173.883L598.668 141.009L655.604 108.155Z" fill="#00C6DA" stroke="black"/>
<g opacity="0.8">
<g opacity="0.8">
<mask id="path-66-inside-3_13586_1746" fill="white">
<path d="M655.604 194.371H655.468V215.332H655.604V194.371Z"/>
</mask>
<path d="M655.604 194.371H655.468V215.332H655.604V194.371Z" fill="#081353"/>
<path d="M655.468 194.371V193.371H654.468V194.371H655.468ZM655.604 194.371H656.604V193.371H655.604V194.371ZM655.604 215.332V216.332H656.604V215.332H655.604ZM655.468 215.332H654.468V216.332H655.468V215.332ZM655.468 195.371H655.604V193.371H655.468V195.371ZM654.604 194.371V215.332H656.604V194.371H654.604ZM655.604 214.332H655.468V216.332H655.604V214.332ZM656.468 215.332V194.371H654.468V215.332H656.468Z" fill="black" mask="url(#path-66-inside-3_13586_1746)"/>
</g>
</g>
<path d="M654.71 123.637L687.419 142.524L654.71 161.411L621.982 142.524L654.71 123.637Z" fill="#6E7FBB" stroke="black"/>
<path d="M622.506 142.524L654.715 123.926V161.122L622.506 142.524Z" fill="#081353" stroke="black"/>
<path d="M176.396 348.701L176.64 348.833L177.759 349.489L177.762 349.491L183.183 352.618L183.185 352.619C183.757 352.946 184.019 353.341 184.079 353.646V353.97C184.02 354.292 183.775 354.67 183.181 355.016C183.181 355.016 183.181 355.017 183.181 355.017L176.383 358.939C175.492 359.453 174.192 359.643 172.969 359.479L172.969 359.479L172.956 359.478C172.289 359.406 171.681 359.227 171.193 358.941L171.19 358.939L164.39 355.016L164.14 354.871L163.89 355.016L148.682 363.813C148.681 363.813 148.681 363.814 148.68 363.814C147.838 364.287 146.704 364.545 145.566 364.545C144.423 364.545 143.312 364.304 142.476 363.816L142.474 363.815L134.569 359.251C134.569 359.251 134.568 359.251 134.568 359.251C133.73 358.762 133.438 358.203 133.438 357.741C133.438 357.279 133.73 356.72 134.568 356.231C134.568 356.231 134.569 356.23 134.569 356.23L139.462 353.415L139.465 353.413L142.494 351.647L142.496 351.646L158.037 342.692L158.037 342.691L170.51 335.485L170.51 335.485L175.6 332.552L175.601 332.551L188.074 325.344L188.074 325.344L195.67 320.954L196.217 320.638L195.785 320.179C193.718 317.98 192.428 315.612 191.907 313.208L191.906 313.207C191.384 310.84 191.588 308.418 192.541 306.083L192.542 306.082C193.965 302.581 197.077 299.198 201.926 296.4L201.926 296.4C208.866 292.394 217.988 290.377 227.138 290.377C236.287 290.377 245.41 292.394 252.349 296.4L252.354 296.403C254.32 297.51 255.979 298.75 257.389 300.045C259.342 301.853 260.748 303.803 261.606 305.778L261.571 305.812L261.694 306.118C262.294 307.619 262.61 309.168 262.61 310.692C262.61 315.753 259.252 320.937 252.31 324.945L252.308 324.945C251.025 325.692 249.647 326.381 248.211 326.975L248.205 326.977C248.077 327.032 247.949 327.083 247.811 327.136L247.809 327.138C247.676 327.19 247.536 327.245 247.395 327.305C236.337 331.745 221.867 332.133 210.179 328.494L209.97 328.429L209.78 328.539L201.757 333.181L201.756 333.181L193.946 337.688L193.196 338.121L193.946 338.554L195.326 339.35L195.326 339.351L200.688 342.439L200.689 342.44C201.393 342.843 201.633 343.306 201.633 343.669C201.633 344.034 201.392 344.502 200.687 344.915C200.686 344.915 200.686 344.915 200.685 344.916L194.008 348.778C194.008 348.778 194.007 348.778 194.006 348.779C193.293 349.182 192.334 349.398 191.352 349.398C190.37 349.398 189.417 349.182 188.714 348.78C188.714 348.779 188.714 348.779 188.713 348.779L184.849 346.546L184.847 346.545L183.354 345.692L182.445 345.151L182.441 345.148L181.975 344.876L181.724 344.73L181.472 344.876L176.382 347.829L175.608 348.277L176.396 348.701ZM240.398 318.307L240.648 318.739C243.626 317.016 245.493 314.831 246.135 312.487C246.783 310.128 246.164 307.698 244.355 305.572C243.435 304.468 242.181 303.462 240.647 302.585C236.9 300.423 232.015 299.357 227.155 299.357C222.294 299.357 217.404 300.424 213.648 302.585C212.116 303.46 210.863 304.465 209.943 305.567C209.779 305.753 209.614 305.958 209.468 306.166C208.042 308.128 207.581 310.31 208.141 312.432C208.698 314.543 210.246 316.529 212.708 318.16L212.715 318.165C212.999 318.354 213.305 318.559 213.655 318.744C217.4 320.903 222.283 321.968 227.14 321.968C232.001 321.968 236.891 320.902 240.647 318.74L240.398 318.307Z" fill="#6E7FBB" stroke="black"/>
<path d="M133.457 357.741V350.128C133.644 350.284 133.855 350.429 134.088 350.56L141.992 355.142C141.992 355.142 141.992 355.143 141.993 355.143C142.887 355.664 143.984 355.932 145.086 355.993V364.529C144.111 364.466 143.195 364.218 142.494 363.815C142.494 363.815 142.493 363.815 142.493 363.815L134.588 359.252C134.588 359.251 134.588 359.251 134.587 359.251C133.75 358.762 133.457 358.203 133.457 357.741Z" fill="#081353" stroke="black"/>
<path d="M199.987 335.862L201.681 334.968V336.818V336.819L201.643 343.441H201.643V343.444V343.811C201.583 344.132 201.339 344.51 200.745 344.857C200.745 344.857 200.745 344.857 200.744 344.857L193.946 348.78C193.946 348.78 193.946 348.78 193.946 348.78C193.16 349.233 192.055 349.435 190.966 349.363V340.655L194.683 338.679L194.684 338.679L199.986 335.863L199.987 335.862Z" fill="#6E7FBB" stroke="black"/>
<path d="M190.992 339.767L190.885 349.335C189.909 349.261 189.093 348.982 188.705 348.747L188.705 348.747L188.695 348.741L182.145 344.961V336.435L190.992 339.767Z" fill="#081353" stroke="black"/>
<path d="M182.424 346.003L184.118 345.108V346.958V346.96L184.079 353.581H184.079V353.584V353.951C184.02 354.272 183.775 354.65 183.182 354.997C183.181 354.997 183.181 354.997 183.181 354.997L176.383 358.92C176.383 358.92 176.383 358.92 176.383 358.92C175.597 359.374 174.492 359.575 173.402 359.503V350.796L177.12 348.819L177.12 348.819L182.423 346.003L182.424 346.003Z" fill="#6E7FBB" stroke="black"/>
<path d="M164.66 346.633L173.506 349.966L173.399 359.514C172.424 359.441 171.603 359.164 171.209 358.939C171.208 358.939 171.208 358.939 171.208 358.939L164.66 355.16V346.633Z" fill="#081353" stroke="black"/>
<path d="M195.191 310.55L195.189 310.551L191.722 312.56C191.687 312.385 191.651 312.167 191.624 311.903L191.624 311.903L191.623 311.898C191.492 310.752 191.49 308.084 191.524 305.663C191.541 304.461 191.567 303.333 191.588 302.505C191.599 302.091 191.608 301.752 191.615 301.517L191.623 301.245L191.625 301.175L191.626 301.157L191.626 301.152L191.626 301.151L191.626 301.151L191.126 301.135L191.626 301.151L191.626 301.143V301.135C191.626 300.218 191.734 299.301 191.954 298.388C192.871 300.679 194.121 303.226 195.207 305.318C195.864 306.583 196.464 307.687 196.9 308.475C197.087 308.813 197.244 309.092 197.362 309.302L195.191 310.55Z" fill="#081353" stroke="black"/>
<path d="M210.569 320.083C221.02 323.112 230.245 322.799 236.899 321.709C240.294 321.153 243.021 320.395 244.903 319.774C245.844 319.464 246.573 319.188 247.07 318.988C247.088 318.981 247.107 318.973 247.125 318.966V327.406C237.608 331.089 228.43 331.375 221.601 330.73C218.15 330.403 215.303 329.839 213.321 329.357C212.33 329.116 211.556 328.896 211.031 328.737C210.845 328.68 210.691 328.632 210.569 328.592V320.083Z" fill="#081353" stroke="black"/>
<path d="M252.35 324.925L252.347 324.926C251.065 325.673 249.687 326.361 248.252 326.955C248.251 326.955 248.251 326.955 248.25 326.955L248.125 327.006V313.46L258.13 299.975L258.13 299.975L261.328 295.66C262.212 297.453 262.649 299.288 262.649 301.115V301.134V310.672C262.649 315.753 259.291 320.937 252.35 324.925Z" fill="#6E7FBB" stroke="black"/>
<path d="M252.349 286.862L252.349 286.862C256.469 289.238 259.327 292.035 260.963 294.968L261.4 294.724L260.965 294.97C262.091 296.959 262.649 299.051 262.649 301.115C262.649 302.643 262.351 304.19 261.734 305.684L261.733 305.686C260.31 309.187 257.199 312.569 252.351 315.367C250.797 316.249 249.167 317.035 247.439 317.726L247.438 317.727C236.379 322.188 221.908 322.595 210.219 318.937L210.217 318.936C207.237 318.014 204.434 316.823 201.925 315.386C199.417 313.951 197.38 312.35 195.807 310.644L195.807 310.644L195.802 310.639C194.308 309.07 193.236 307.393 192.542 305.706C191.942 304.206 191.626 302.658 191.626 301.135C191.626 299.761 191.886 298.381 192.374 297.01C193.702 293.327 196.866 289.775 201.926 286.863L201.926 286.862C208.866 282.857 217.988 280.839 227.138 280.839C236.287 280.839 245.41 282.857 252.349 286.862ZM244.357 306.214L244.649 305.863L244.626 305.84C246.209 303.8 246.727 301.51 246.116 299.281C245.473 296.937 243.607 294.752 240.629 293.029C236.882 290.857 231.996 289.785 227.135 289.785C222.274 289.785 217.383 290.857 213.627 293.029L213.627 293.029C210.649 294.752 208.783 296.937 208.14 299.281C207.492 301.641 208.111 304.071 209.921 306.198C210.818 307.258 211.971 308.204 213.407 309.062L213.41 309.064L214.071 309.452L214.079 309.457L214.087 309.461C217.85 311.492 222.663 312.475 227.431 312.433C232.198 312.391 236.97 311.324 240.647 309.202C242.182 308.325 243.436 307.318 244.357 306.214Z" fill="#00C6DA" stroke="black"/>
<path d="M142.475 354.258L142.475 354.258C143.304 354.738 144.426 354.992 145.576 354.992C146.726 354.992 147.848 354.738 148.677 354.258L148.677 354.258L220.183 312.984L206.553 305.111L134.548 346.674L142.475 354.258ZM142.475 354.258L134.624 349.726M142.475 354.258L134.624 349.726M134.624 349.726L134.605 349.707L134.548 349.674C133.716 349.192 133.413 348.632 133.413 348.174C133.413 347.716 133.716 347.155 134.548 346.674L134.624 349.726Z" fill="#00C6DA" stroke="black"/>
<path d="M171.21 349.402L150.763 337.596L162.236 330.967L183.182 343.06C183.88 343.465 184.113 343.919 184.113 344.269C184.113 344.619 183.88 345.073 183.182 345.478C183.182 345.478 183.182 345.478 183.182 345.478L176.383 349.402L176.379 349.404C175.698 349.804 174.766 350.019 173.803 350.019C172.841 350.019 171.903 349.804 171.21 349.402L171.21 349.402Z" fill="#00C6DA" stroke="black"/>
<path d="M188.733 339.222L168.327 327.456L179.8 320.827L200.705 332.88C200.705 332.88 200.706 332.881 200.706 332.881C201.411 333.294 201.652 333.762 201.652 334.126C201.652 334.49 201.413 334.953 200.709 335.356L200.707 335.357L194.028 339.22C194.027 339.221 194.026 339.221 194.026 339.221C193.312 339.625 192.354 339.84 191.372 339.84C190.389 339.84 189.436 339.625 188.733 339.222C188.733 339.222 188.733 339.222 188.733 339.222Z" fill="#00C6DA" stroke="black"/>
<path d="M355.626 121.275C357.714 118.526 360.663 117.237 365.224 115.632C359.925 114.753 356.747 113.12 354.657 109.959C352.652 106.926 351.67 102.512 350.686 96.1164C349.972 102.153 349.067 106.495 347.057 109.547C344.945 112.754 341.639 114.502 336.199 115.356C340.924 117.174 344.247 118.565 346.599 121.354C348.913 124.097 350.267 128.161 351.187 135.216C352.369 128.084 353.57 123.984 355.626 121.275Z" fill="white" stroke="black" stroke-width="0.5"/>
<path d="M635.015 124.914C636.428 123.025 638.408 122.113 641.403 121.033C637.904 120.404 635.764 119.257 634.344 117.076C633.01 115.029 632.331 112.095 631.68 107.92C631.197 111.855 630.567 114.733 629.234 116.788C627.796 119.003 625.567 120.229 621.962 120.844C625.085 122.068 627.319 123.048 628.913 124.966C630.466 126.834 631.391 129.565 632.025 134.191C632.813 129.513 633.634 126.759 635.015 124.914Z" fill="white" stroke="black" stroke-width="0.5"/>
<path d="M196.165 293.999C197.578 292.11 199.558 291.199 202.554 290.118C199.054 289.49 196.915 288.342 195.494 286.162C194.161 284.115 193.481 281.181 192.83 277.005C192.348 280.94 191.717 283.819 190.384 285.873C188.947 288.089 186.717 289.314 183.112 289.929C186.236 291.154 188.469 292.134 190.063 294.051C191.616 295.92 192.542 298.65 193.175 303.276C193.964 298.598 194.785 295.845 196.165 293.999Z" fill="white" stroke="black" stroke-width="0.5"/>
<defs>
<linearGradient id="paint0_linear_13586_1746" x1="199.24" y1="170.554" x2="244.754" y2="124.081" gradientUnits="userSpaceOnUse">
<stop stop-color="white"/>
<stop offset="0.43" stop-color="#FCFBFD"/>
<stop offset="0.83" stop-color="#F3F0F8"/>
<stop offset="1" stop-color="#EEE9F5"/>
</linearGradient>
<linearGradient id="paint1_linear_13586_1746" x1="442.702" y1="284.091" x2="537.888" y2="186.948" gradientUnits="userSpaceOnUse">
<stop stop-color="white"/>
<stop offset="0.43" stop-color="#FCFBFD"/>
<stop offset="0.83" stop-color="#F3F0F8"/>
<stop offset="1" stop-color="#EEE9F5"/>
</linearGradient>
<linearGradient id="paint2_linear_13586_1746" x1="660.325" y1="213.117" x2="705.859" y2="166.663" gradientUnits="userSpaceOnUse">
<stop stop-color="white"/>
<stop offset="0.43" stop-color="#FCFBFD"/>
<stop offset="0.83" stop-color="#F3F0F8"/>
<stop offset="1" stop-color="#EEE9F5"/>
</linearGradient>
</defs>
</svg>
